<svg xmlns="http://www.w3.org/2000/svg" version="1.1" xmlns:xlink="http://www.w3.org/1999/xlink" width="512" height="512" x="0" y="0" viewBox="0 0 32 32" style="enable-background:new 0 0 512 512" xml:space="preserve" class=""><g><path d="m11 19 2-4h-1l-2 4zM9 19l2-4H3a1 1 0 0 0-1 1v3zm-2-3a1 1 0 1 1 0 2 1 1 0 0 1 0-2zm-3 0a1 1 0 1 1 0 2 1 1 0 0 1 0-2zM30 19v-3a1 1 0 0 0-1-1H14l-2 4zM26 10h-1.522a9.093 9.093 0 0 0-.362-.873l1.076-1.077a1 1 0 0 0 0-1.414l-2.828-2.828a1 1 0 0 0-1.414 0l-1.077 1.076A9.093 9.093 0 0 0 19 4.522V3a1 1 0 0 0-1-1h-4a1 1 0 0 0-1 1v1.522a9.093 9.093 0 0 0-.873.362L11.05 3.807a1 1 0 0 0-1.414 0l-2.828 2.83a1 1 0 0 0 0 1.413l1.076 1.077a9.093 9.093 0 0 0-.362.873H6a1 1 0 0 0-1 1v3h6a3 3 0 0 1 3-3h2c-1.654 0-3-1.346-3-3s1.346-3 3-3 3 1.346 3 3-1.346 3-3 3h2a3 3 0 0 1 3 3h6v-3a1 1 0 0 0-1-1zM2 20v9a1 1 0 0 0 1 1h26a1 1 0 0 0 1-1v-9zm10.82 7.116a.5.5 0 0 1-.64.768l-3-2.5a.501.501 0 0 1 0-.768l3-2.5a.5.5 0 0 1 .64.768L10.281 25zm5.109-4.36-3 5a.5.5 0 1 1-.858-.514l3-5a.5.5 0 1 1 .857.515zm4.892 2.628-3 2.5a.5.5 0 0 1-.641-.768L21.719 25l-2.54-2.116a.5.5 0 0 1 .642-.768l3 2.5a.501.501 0 0 1 0 .768z" fill="#ffffff" opacity="1" data-original="#ffffff" class=""></path></g></svg>