<svg xmlns="http://www.w3.org/2000/svg" version="1.1" xmlns:xlink="http://www.w3.org/1999/xlink" width="512" height="512" x="0" y="0" viewBox="0 0 363.145 273.058" style="enable-background:new 0 0 512 512" xml:space="preserve" class=""><g><path d="M113.997 181.484h135.151v11.333H113.997zM0 181.484v11.333h20.635L17.8 181.484zM363.145 192.817v-11.333h-17.8l-2.835 11.333zM249.148 176.803h-.857a11.016 11.016 0 0 1-6.663 2.258h-28.99c-3.523 0-6.657-1.672-8.671-4.257h-44.789c-2.014 2.585-5.148 4.257-8.671 4.257h-28.99c-2.44 0-4.774-.821-6.663-2.258h-.857v4.68h135.151v-4.68zM127.873 157.06h16.468l.361-1.276h5.15l-.31 1.277h.965c1.26 0 2.467.223 3.595.616l.393-1.893h5.15l-.52 3.09h-2.585c2.988 1.968 4.967 5.349 4.967 9.187 0 1.121-.17 2.203-.484 3.223h41.1a10.96 10.96 0 0 1-.484-3.223c0-3.838 1.979-7.219 4.967-9.188h-2.594l-.52-3.089h5.15l.393 1.895c1.131-.393 2.34-.618 3.603-.618h.966l-.31-1.277h5.149l.36 1.277h16.47l3.442-5.972H124.43zm72.382 9.411h-5.571l-.32-3.446h5.435zm-6.564-10.687h5.15l.408 3.09h-5.27zm-4.031 10.687h-5.58l-.061-3.446h5.444zm-.612-10.687.177 3.09h-5.28l-.055-3.09zm-14.95 0h5.149l-.055 3.09h-5.272zm-.415 7.241h5.435l-.062 3.446h-5.57zm-9.387-7.241h5.15l-.288 3.09h-5.271zm-.959 7.241h5.435l-.32 3.446h-5.571zM0 181.483h17.8l-3.152-12.599zM363.145 181.483l-14.647-12.599-3.152 12.6zM122.482 147.71h118.182l9.232-16.013c.128-.223.274-.439.42-.654h-44.993v-4.04h-7v-11h30.75V59.67h-95v56.333h31.416v11h-7.666v4.04h-44.994c.146.215.292.43.42.654zm15.59-84.04h87v48.333h-87z" fill="#ffffff" opacity="1" data-original="#000000" class=""></path><path d="M40.038 112.003V63.67h87v48.334h-16.506a26.346 26.346 0 0 1-.69 4h21.195V59.67h-95v56.333H58.47a26.362 26.362 0 0 1-.69-4zM236.108 112.003V63.67h87v48.334h-17.741a26.346 26.346 0 0 1-.69 4h22.43V59.67h-95v56.333h21.197a26.362 26.362 0 0 1-.691-4zM229.073 0h-95v56.333h95zm-4 52.334h-87V4h87zM131.037 0h-95v56.333h95zm-4 52.334h-87V4h87zM232.108 56.333h95V0h-95zm4-52.333h87v48.334h-87z" fill="#ffffff" opacity="1" data-original="#000000" class=""></path><path d="M63.548 118.516a10.532 10.532 0 0 1 5.3 7.23h30.848c4.286-4.097 6.96-9.866 6.96-16.263 0-12.427-10.073-22.5-22.5-22.5s-22.5 10.073-22.5 22.5c0 3.213.678 6.267 1.892 9.033zM84.788 267.391c0-1.269.271-2.487.772-3.592l-5.396-1.66a11.031 11.031 0 0 0 4.786 6.902 8.667 8.667 0 0 1-.162-1.65zM109.353 218.96h9.836l-6.926 38.905c-1.066 5.982 2.92 11.694 8.901 12.758.652.116 1.3.173 1.94.173 5.23 0 9.869-3.745 10.818-9.074l9.228-51.833a11.001 11.001 0 0 0-10.83-12.929h-22.323v-34.867l5.456 9.464a7 7 0 0 0 6.065 3.504h28.989a7 7 0 1 0 0-14h-24.944l-15.78-27.37a6.97 6.97 0 0 0-.938-1.263 7.716 7.716 0 0 0-6.576-3.682h-32.68l20.565 82.21c6.11.928 9.8 2.367 9.8 5.768 0 5.353-6.281 8.879-14.498 10.946l-4.15 23.311 17.648 5.43v4.284a8.581 8.581 0 0 1 2.284 2.88c.216-.592.387-1.21.501-1.853z" fill="#ffffff" opacity="1" data-original="#000000" class=""></path><path d="M65.969 126.637a7.6 7.6 0 0 0-7.506-6.415H16.3c-4.668 0-8.233 4.17-7.506 8.782l21.36 85.382a7.564 7.564 0 0 0 1.496 3.456c1.528 4.455 12.087 8.058 25.804 8.962v1.77h4.25v21.053l-29.25 9v3.684a5.661 5.661 0 0 0-3.166 5.08 5.667 5.667 0 1 0 11.333 0 5.66 5.66 0 0 0-3.155-5.074l24.238-7.458v7.452a5.661 5.661 0 0 0-3.166 5.08 5.667 5.667 0 1 0 11.333 0 5.661 5.661 0 0 0-3.167-5.08v-7.452l24.239 7.458a5.66 5.66 0 0 0-3.155 5.074 5.667 5.667 0 1 0 11.333 0 5.661 5.661 0 0 0-3.167-5.08v-3.684l-29.25-9v-21.053h4.25v-1.77c14.848-.978 26-5.119 26-10.08 0-1.368-3.793-2.406-9.547-3.116a7.63 7.63 0 0 0-.079-1.589zM263.45 125.745h30.848a10.532 10.532 0 0 1 5.3-7.23 22.413 22.413 0 0 0 1.892-9.032c0-12.427-10.074-22.5-22.5-22.5-12.428 0-22.5 10.073-22.5 22.5 0 6.397 2.674 12.166 6.96 16.262zM261.908 263.576a8.582 8.582 0 0 1 2.284-2.881v-4.283l17.648-5.43-4.151-23.313c-8.217-2.066-14.498-5.593-14.498-10.945 0-3.401 3.69-4.84 9.8-5.769l20.566-82.21h-32.68a7.716 7.716 0 0 0-6.577 3.683c-.35.378-.668.797-.937 1.264l-15.78 27.369h-24.945a7 7 0 1 0 0 14h28.99a7 7 0 0 0 6.064-3.504l5.456-9.464v34.867h-22.323a11 11 0 0 0-10.83 12.929l9.228 51.833c.95 5.329 5.587 9.073 10.818 9.074.64 0 1.288-.057 1.94-.173 5.982-1.064 9.967-6.776 8.902-12.758l-6.927-38.905h9.837l7.613 42.762c.114.643.285 1.26.501 1.854zM277.585 263.8a8.679 8.679 0 0 1 .61 5.24 11.031 11.031 0 0 0 4.786-6.901z" fill="#ffffff" opacity="1" data-original="#000000" class=""></path><path d="M354.351 129.004c.727-4.611-2.837-8.782-7.506-8.782h-42.163a7.6 7.6 0 0 0-7.506 6.415l-21.359 85.382a7.63 7.63 0 0 0-.08 1.589c-5.752.71-9.546 1.748-9.546 3.116 0 4.961 11.152 9.102 26 10.08v1.77h4.25v21.053l-29.25 9v3.684a5.661 5.661 0 0 0-3.166 5.08 5.666 5.666 0 1 0 11.333 0 5.66 5.66 0 0 0-3.155-5.074l24.238-7.458v7.452a5.661 5.661 0 0 0-3.167 5.08 5.666 5.666 0 1 0 11.333 0 5.661 5.661 0 0 0-3.166-5.08v-7.452l24.238 7.458a5.66 5.66 0 0 0-3.155 5.074 5.666 5.666 0 1 0 11.333 0 5.661 5.661 0 0 0-3.166-5.08v-3.684l-29.25-9v-21.053h4.25v-1.77c13.717-.904 24.276-4.507 25.805-8.962a7.563 7.563 0 0 0 1.495-3.456z" fill="#ffffff" opacity="1" data-original="#000000" class=""></path></g></svg>