<svg xmlns="http://www.w3.org/2000/svg" version="1.1" xmlns:xlink="http://www.w3.org/1999/xlink" width="512" height="512" x="0" y="0" viewBox="0 0 512 512" style="enable-background:new 0 0 512 512" xml:space="preserve" class=""><g><path d="M54.548 206.979c20.442-20.263 58.26-15.254 84.472 11.189a43.008 43.008 0 0 1 2.119 2.313V81.354h-98.2C19.225 81.354 0 100.579 0 124.294v154.081h54.27c-16.332-24.714-16.957-54.311.278-71.396zM94.717 400.918l-44.551-47.264 20.969-18.989H0v53.041c0 23.716 19.225 42.939 42.939 42.939h98.199v-73.484zM202.435 218.169c26.212-26.443 64.029-31.452 84.472-11.189 17.234 17.085 16.61 46.682.278 71.396H512V124.294c0-23.715-19.226-42.939-42.94-42.939H200.316v139.127a43.008 43.008 0 0 1 2.119-2.313zM291.288 356.368l-47.264 44.55-43.708-46.369v76.097H469.06c23.715 0 42.94-19.224 42.94-42.939v-53.041H270.106z" fill="#ffffff" opacity="1" data-original="#000000" class=""></path><path d="M215.415 241.228c-13.411 13.528-16.022 54.037-16.022 54.037s40.483-2.968 53.895-16.496 15.804-32.9 5.345-43.266c-10.459-10.367-29.809-7.804-43.218 5.725zM82.822 235.503c-10.459 10.365-8.066 29.737 5.344 43.266 13.412 13.528 53.895 16.496 53.895 16.496s-2.61-40.509-16.021-54.037c-13.41-13.529-32.76-16.092-43.218-5.725z" fill="#ffffff" opacity="1" data-original="#000000" class=""></path></g></svg>