<svg xmlns="http://www.w3.org/2000/svg" version="1.1" xmlns:xlink="http://www.w3.org/1999/xlink" width="512" height="512" x="0" y="0" viewBox="0 0 512 512" style="enable-background:new 0 0 512 512" xml:space="preserve" class=""><g><path d="M380.8 161c0-2.84-.1-5.7-.29-8.56l38.95-30.33-48.06-83.22-45.73 18.56c-4.74-3.2-9.7-6.06-14.83-8.58L304.05 0h-96.1l-6.79 48.87a124.97 124.97 0 0 0-14.83 8.58L140.6 38.89l-48.06 83.22 38.95 30.33c-.385 5.73-.385 11.39 0 17.12l-38.95 30.33 48.06 83.22 45.73-18.56c4.74 3.2 9.7 6.06 14.83 8.58l6.79 48.87h96.1l6.79-48.87a124.97 124.97 0 0 0 14.83-8.58l45.73 18.56 48.06-83.22-38.95-30.33c.19-2.86.29-5.72.29-8.56zM256 197.2c-19.99 0-36.2-16.21-36.2-36.2 1.911-48.018 70.497-48.004 72.4 0 0 19.99-16.21 36.2-36.2 36.2zM120.5 457.27V512h80.31l17.24-113.16-17.87-43.69c-45.72 11.46-79.68 52.9-79.68 102.12zM280.7 352h-49.4l12.27 30h24.86zM246.39 412l-15.24 100h49.7l-15.24-100zM311.82 355.15l-17.87 43.69L311.19 512h80.31v-54.73c0-49.22-33.96-90.66-79.68-102.12zM361 465.58h-30v-30h30z" fill="#ffffff" opacity="1" data-original="#000000"></path></g></svg>