<svg xmlns="http://www.w3.org/2000/svg" version="1.1" xmlns:xlink="http://www.w3.org/1999/xlink" width="512" height="512" x="0" y="0" viewBox="0 0 512 512" style="enable-background:new 0 0 512 512" xml:space="preserve" class=""><g><path fill-rule="evenodd" d="m71.343 334.408 72.602 128.284c3.511 6.203 1.308 14.15-4.895 17.66l-24.695 13.977c-6.203 3.51-14.15 1.308-17.66-4.895L24.092 361.15c-3.51-6.203-1.307-14.15 4.896-17.661l24.695-13.976c6.202-3.51 14.15-1.308 17.66 4.895zm80.915-26.655-58.45 33.864 51.244 90.545 10.577-6.107 115.855 31.043c16.665 4.467 32.739 2.356 47.43-6.688l159.727-98.353c22.748-14.005 12.699-75.306-55.718-35.46l-88.016 51.265c-4.901 2.854-9.9 4.875-15.028 6.133-7.279 12.226-20.535 16.638-34.262 14.629-21.414-3.135-38.746-10.154-59.134-15.617a7.99 7.99 0 1 1 4.125-15.437c19.722 5.284 36.67 12.219 57.321 15.242 12.282 1.797 22.763-5.778 25.949-17.668 3.54-13.213-4.573-26.245-17.588-30.464-35.062-6.324-69.442-20.986-90.497-27.813-18.884-6.126-36.354.932-53.535 10.886zM414.501 17.5l11.232 29.585a2.3 2.3 0 0 0 2.074 1.507l31.607 1.541c2.15.104 3.03 2.812 1.352 4.161L436.1 74.119a2.296 2.296 0 0 0-.792 2.438l8.302 30.536c.565 2.077-1.739 3.75-3.54 2.572l-26.477-17.332a2.297 2.297 0 0 0-2.563 0l-26.477 17.332c-1.801 1.179-4.104-.494-3.54-2.571l8.302-30.537a2.296 2.296 0 0 0-.792-2.438L363.86 54.293c-1.677-1.348-.798-4.056 1.352-4.161l31.608-1.541a2.297 2.297 0 0 0 2.074-1.507L410.126 17.5c.759-2 3.616-2 4.375 0zm-118.062 0 11.233 29.584a2.3 2.3 0 0 0 2.073 1.507l31.608 1.541c2.15.104 3.03 2.812 1.352 4.161l-24.666 19.825a2.3 2.3 0 0 0-.792 2.438l8.302 30.537c.565 2.077-1.738 3.75-3.539 2.572l-26.477-17.332a2.297 2.297 0 0 0-2.563 0l-26.476 17.332c-1.801 1.179-4.104-.495-3.539-2.571l8.302-30.537a2.3 2.3 0 0 0-.792-2.438l-24.666-19.825c-1.678-1.348-.798-4.056 1.352-4.161l31.607-1.541a2.297 2.297 0 0 0 2.074-1.507L292.064 17.5c.759-2 3.616-2 4.375 0zm-118.061 0 11.232 29.585a2.3 2.3 0 0 0 2.074 1.507l31.607 1.541c2.15.104 3.029 2.812 1.352 4.161l-24.665 19.825a2.296 2.296 0 0 0-.792 2.438l8.302 30.536c.565 2.077-1.738 3.75-3.539 2.572l-26.477-17.332a2.297 2.297 0 0 0-2.563 0l-26.476 17.332c-1.801 1.179-4.104-.494-3.54-2.571l8.302-30.537a2.3 2.3 0 0 0-.792-2.438l-24.666-19.825c-1.678-1.348-.797-4.056 1.352-4.161l31.608-1.541a2.297 2.297 0 0 0 2.074-1.507L174.002 17.5c.76-2 3.616-2 4.376 0zm115.874 110.965c20.519 0 37.152 16.634 37.152 37.153s-16.634 37.153-37.152 37.153c-20.519 0-37.152-16.634-37.152-37.153s16.633-37.153 37.152-37.153zm-67.265 149.88a4.983 4.983 0 0 1-4.912-5.936c6.475-33.964 36.326-59.639 72.177-59.639 35.849 0 65.7 25.674 72.176 59.638a4.982 4.982 0 0 1-4.911 5.936zm-50.797-155.41c20.519 0 37.152 16.634 37.152 37.153s-16.634 37.153-37.152 37.153c-20.519 0-37.153-16.634-37.153-37.153.001-20.519 16.635-37.153 37.153-37.153zm-67.265 149.88h96.856c2.605-17.307 10.121-32.879 21.021-45.36-13.177-12.526-30.996-20.214-50.612-20.214-35.85 0-65.701 25.674-72.177 59.639a4.983 4.983 0 0 0 4.912 5.935zm303.389-149.88c20.519 0 37.153 16.634 37.153 37.153s-16.634 37.153-37.153 37.153-37.153-16.634-37.153-37.153 16.634-37.153 37.153-37.153zm-29.592 149.88h96.856a4.981 4.981 0 0 0 4.911-5.936c-6.475-33.964-36.326-59.638-72.176-59.638-19.617 0-37.435 7.688-50.613 20.214 10.901 12.48 18.416 28.053 21.022 45.36zM53.244 351.074a8.817 8.817 0 1 0 2.551 17.448 8.817 8.817 0 1 0-2.551-17.448z" clip-rule="evenodd" fill="#ffffff" opacity="1" data-original="#000000" class=""></path></g></svg>