<svg xmlns="http://www.w3.org/2000/svg" version="1.1" xmlns:xlink="http://www.w3.org/1999/xlink" width="512" height="512" x="0" y="0" viewBox="0 0 612 612" style="enable-background:new 0 0 512 512" xml:space="preserve" class=""><g><path d="M251.733 288.168c79.576 0 144.084-64.509 144.084-144.084S331.31 0 251.733 0c-79.575 0-144.084 64.509-144.084 144.084s64.509 144.084 144.084 144.084zm67.338-86.79c-6.555 21.671-34.632 37.963-68.283 37.963s-61.728-16.292-68.282-37.963h136.565zm284.639 224.9c-3.09 85.35-37.799 158.706-118.848 185.722-81.049-27.016-115.758-100.372-118.848-185.722-.242-6.655 5.258-12.049 11.91-11.765 37.873 1.615 70.926-10.577 99.877-34.521 4.074-3.37 10.045-3.37 14.121 0 28.949 23.943 62.004 36.136 99.875 34.521 6.655-.284 12.153 5.11 11.913 11.765zm-262.516.889c1.414 39.206 8.896 73.968 21.902 103.688-30.627 3.456-67.427 5.733-111.363 5.733-138.927 0-206.913-22.701-231.838-33.792-6.431-2.86-11.613-11.042-11.613-18.082V437.22c0-71.171 54.188-130.214 123.333-138.123 2.101-.241 5.216.659 6.929 1.899 31.881 23.08 70.912 36.854 113.19 36.854 42.278 0 81.31-13.774 113.19-36.854 1.713-1.24 4.828-2.14 6.93-1.899 39.904 4.564 74.748 26.218 97.148 57.348-2.482 1.222-4.875 2.624-7.023 4.403-23.57 19.485-48.898 28.966-77.418 28.966-1.844 0-3.697-.039-5.588-.126l-1.543-.029c-9.811 0-19.33 4.047-26.133 11.102-6.775 7.027-10.462 16.663-10.103 26.406z" fill="#ffffff" opacity="1" data-original="#000000"></path></g></svg>