<svg xmlns="http://www.w3.org/2000/svg" version="1.1" xmlns:xlink="http://www.w3.org/1999/xlink" width="512" height="512" x="0" y="0" viewBox="0 0 24 24" style="enable-background:new 0 0 512 512" xml:space="preserve" class=""><g><path d="M19.25 0H4.75A2.752 2.752 0 0 0 2 2.75v18.5A2.752 2.752 0 0 0 4.75 24h14.5A2.752 2.752 0 0 0 22 21.25V2.75A2.752 2.752 0 0 0 19.25 0zm-8.5 13V8.076C13.15 8.441 15 10.5 15 13c0 2.757-2.243 5-5 5a4.95 4.95 0 0 1-2.953-.987l3.483-3.483a.747.747 0 0 0 .22-.53zm-1.5-4.924v4.614l-3.263 3.263A4.95 4.95 0 0 1 5 13c0-2.5 1.85-4.559 4.25-4.924zm9 13.174H5.75a.75.75 0 0 1 0-1.5h12.5a.75.75 0 0 1 0 1.5zm0-3.25h-1.5a.75.75 0 0 1 0-1.5h1.5a.75.75 0 0 1 0 1.5zm0-2.75h-1.5a.75.75 0 0 1 0-1.5h1.5a.75.75 0 0 1 0 1.5zm0-3h-1.5a.75.75 0 0 1 0-1.5h1.5a.75.75 0 0 1 0 1.5zm0-2.75h-1.5a.75.75 0 0 1 0-1.5h1.5a.75.75 0 0 1 0 1.5z" fill="#ffffff" opacity="1" data-original="#000000" class=""></path></g></svg>