<svg xmlns="http://www.w3.org/2000/svg" version="1.1" xmlns:xlink="http://www.w3.org/1999/xlink" width="512" height="512" x="0" y="0" viewBox="0 0 68 67" style="enable-background:new 0 0 512 512" xml:space="preserve" class=""><g><path d="M68 40H0V18.112a1.957 1.957 0 0 1 .586-1.526L15.414 1.757A6 6 0 0 1 19.657 0h28.686a6 6 0 0 1 4.243 1.757l14.828 14.829c.443.442.62.995.586 1.526zM6.828 16h54.344L49.757 4.586A2 2 0 0 0 48.343 4H19.657a2 2 0 0 0-1.414.586zM28 28h12a2 2 0 0 0 0-4H28a2 2 0 0 0 0 4zm40 15v20a4 4 0 0 1-4 4H4a4 4 0 0 1-4-4V43zM28 55h12a2 2 0 0 0 0-4H28a2 2 0 0 0 0 4z" fill="#ffffff" opacity="1" data-original="#ffffff" class=""></path></g></svg>