<svg xmlns="http://www.w3.org/2000/svg" version="1.1" xmlns:xlink="http://www.w3.org/1999/xlink" width="512" height="512" x="0" y="0" viewBox="0 0 24 24" style="enable-background:new 0 0 512 512" xml:space="preserve" fill-rule="evenodd" class="hovered-paths"><g><circle cx="12" cy="7" r="5.5" fill="#ffffff" opacity="1" data-original="#ffffff" class="hovered-path"></circle><path d="M18.5 13.506h.5a1.252 1.252 0 0 1 1.25 1.25v1.5a.75.75 0 0 0 1.5 0v-1.5a2.75 2.75 0 0 0-2.858-2.75H18.5a2.752 2.752 0 0 0-2.75 2.75v1.5a.75.75 0 0 0 1.5 0v-1.5a1.254 1.254 0 0 1 1.25-1.25zM14.053 22.012a2.73 2.73 0 0 1-.303-1.256v-3.5c0-.854.389-1.617 1-2.121v-.379c0-.401.064-.796.187-1.17A19.08 19.08 0 0 0 12 13.362c-3.322 0-6.263.831-8.089 2.076-1.393.95-2.161 2.157-2.161 3.424v1.45a1.702 1.702 0 0 0 1.7 1.7z" fill="#ffffff" opacity="1" data-original="#ffffff" class="hovered-path"></path><path d="M22.75 20.756v-3.5a1.75 1.75 0 0 0-1.75-1.75h-4.5a1.75 1.75 0 0 0-1.75 1.75v3.5c0 .967.784 1.75 1.75 1.75H21a1.75 1.75 0 0 0 1.75-1.75zM18 18.506v1a.75.75 0 0 0 1.5 0v-1a.75.75 0 0 0-1.5 0z" fill="#ffffff" opacity="1" data-original="#ffffff" class="hovered-path"></path></g></svg>