<svg xmlns="http://www.w3.org/2000/svg" version="1.1" xmlns:xlink="http://www.w3.org/1999/xlink" width="512" height="512" x="0" y="0" viewBox="0 0 32 32" style="enable-background:new 0 0 512 512" xml:space="preserve" class=""><g><path d="M29 24H11v-2h6a1 1 0 0 0 1-1v-8a1 1 0 0 0-1-1H3a1 1 0 0 0-1 1v8a1 1 0 0 0 1 1h6v2H3a1 1 0 0 0-1 1v4a1 1 0 0 0 1 1h26a1 1 0 0 0 1-1v-4a1 1 0 0 0-1-1z" fill="#ffffff" opacity="1" data-original="#ffffff" class=""></path><path d="M20 22v1h9v-1a1 1 0 0 0-1-1h-7a1 1 0 0 0-1 1zM8 6h6.586l-.293.293a1 1 0 1 0 1.414 1.414l2-2a1 1 0 0 0 0-1.414l-2-2a1 1 0 1 0-1.414 1.414l.293.293H8a1 1 0 1 0 0 2z" fill="#ffffff" opacity="1" data-original="#ffffff" class=""></path><path d="M4.293 10.707a.997.997 0 0 0 1.414 0 1 1 0 0 0 0-1.414L5.414 9H12a1 1 0 1 0 0-2H5.414l.293-.293a1 1 0 1 0-1.414-1.414l-2 2a1 1 0 0 0 0 1.414zM24 12a5 5 0 1 0 0-10 5 5 0 0 0 0 10zm0-4.5c-1.103 0-2-.897-2-2 0-.93.64-1.705 1.5-1.929V3.5a.5.5 0 1 1 1 0v.071c.86.224 1.5 1 1.5 1.929a.5.5 0 1 1-1 0 1.001 1.001 0 0 0-2 0c0 .551.448 1 1 1 1.103 0 2 .897 2 2 0 .93-.64 1.705-1.5 1.929v.071a.5.5 0 1 1-1 0v-.071c-.86-.224-1.5-1-1.5-1.929a.5.5 0 1 1 1 0 1 1 0 1 0 1-1zM26 13l-1 1-1-1-1 1-1-1v7h5v-6z" fill="#ffffff" opacity="1" data-original="#ffffff" class=""></path></g></svg>