<svg xmlns="http://www.w3.org/2000/svg" version="1.1" xmlns:xlink="http://www.w3.org/1999/xlink" width="512" height="512" x="0" y="0" viewBox="0 0 512 512" style="enable-background:new 0 0 512 512" xml:space="preserve" class=""><g><path fill-rule="evenodd" d="m227.6 19.35 64.72 37.366L82.491 177.861v89.769c0 3.587 1.778 6.667 4.885 8.461l48.638 28.081c1.553.897 3.331.897 4.885 0 1.553-.897 2.442-2.437 2.442-4.23v-86.949l209.83-121.145 64.72 37.366c6.213 3.587 9.77 9.747 9.77 16.921v112.29c-17.571-5.927-36.163-9.124-54.733-10.257v-7.528c0-8.202-4.682-15.557-12.114-19.027-7.429-3.469-16.076-2.339-22.364 2.923l-74.499 62.353c-6.18 5.172-9.557 12.714-9.299 20.768.258 8.088 4.083 15.346 10.607 20.133l74.248 54.473a20.915 20.915 0 0 0 21.913 1.801c7.101-3.598 11.509-10.772 11.509-18.732v-8.312c15.453 1.843 30.75 6.594 43.311 15.688a64.846 64.846 0 0 1 6.897 5.75c-1.438 1.685-3.197 3.146-5.244 4.328L227.6 492.65c-6.213 3.587-13.326 3.587-19.539 0L17.771 382.786c-6.214-3.587-9.77-9.747-9.77-16.922V146.136c0-7.175 3.556-13.335 9.77-16.921L208.062 19.35c6.213-3.587 13.325-3.587 19.538 0zm129.328 320.743c104.49 0 134.102 99.8 48.275 144.657a.995.995 0 0 0-.456 1.291c.202.451.68.69 1.159.57 142.596-35.074 132.627-222.924-48.978-222.924V240.64c0-1.988-1.083-3.689-2.884-4.53s-3.8-.58-5.325.696L274.22 299.16c-2.436 2.039-3.678 4.813-3.577 7.988.102 3.175 1.519 5.864 4.08 7.743l74.248 54.473c1.558 1.143 3.494 1.302 5.217.429s2.74-2.529 2.74-4.46z" clip-rule="evenodd" fill="#ffffff" opacity="1" data-original="#ffffff" class=""></path></g></svg>