<svg xmlns="http://www.w3.org/2000/svg" xmlns:xlink="http://www.w3.org/1999/xlink" xmlns:svgjs="http://svgjs.com/svgjs" width="512" height="512" x="0" y="0" viewBox="0 0 32 32" style="enable-background:new 0 0 512 512" xml:space="preserve" class=""><g><path d="M20.5 4h-3a.5.5 0 0 1 0-1h3a.5.5 0 0 1 0 1z" fill="#5d78ff" data-original="#000000" class="" opacity="1"></path><path d="M24.5 31h-11a2.503 2.503 0 0 1-2.5-2.5v-4a.5.5 0 0 1 1 0v4c0 .827.673 1.5 1.5 1.5h11c.827 0 1.5-.673 1.5-1.5v-25c0-.827-.673-1.5-1.5-1.5h-11c-.827 0-1.5.673-1.5 1.5v5a.5.5 0 1 1-1 0v-5C11 2.122 12.121 1 13.5 1h11C25.879 1 27 2.122 27 3.5v25c0 1.378-1.121 2.5-2.5 2.5z" fill="#5d78ff" data-original="#000000" class="" opacity="1"></path><path d="M15.5 23h-8A2.503 2.503 0 0 1 5 20.5v-8C5 11.122 6.121 10 7.5 10h8c1.379 0 2.5 1.122 2.5 2.5v8c0 1.378-1.121 2.5-2.5 2.5zm-8-12c-.827 0-1.5.673-1.5 1.5v8c0 .827.673 1.5 1.5 1.5h8c.827 0 1.5-.673 1.5-1.5v-8c0-.827-.673-1.5-1.5-1.5z" fill="#5d78ff" data-original="#000000" class="" opacity="1"></path><path d="M14.5 21h-6a.5.5 0 0 1 0-1h6a.5.5 0 0 1 0 1zM11.5 19a.5.5 0 0 1-.5-.5v-5a.5.5 0 0 1 1 0v5a.5.5 0 0 1-.5.5z" fill="#5d78ff" data-original="#000000" class="" opacity="1"></path><path d="M11.5 19a.502.502 0 0 1-.354-.146l-1.5-1.5a.5.5 0 0 1 .707-.707l1.146 1.146 1.146-1.146a.5.5 0 0 1 .707.707l-1.5 1.5A.494.494 0 0 1 11.5 19zM17 26h-.101a.5.5 0 0 1 0-1H17a.5.5 0 0 1 0 1zM19 26h-.101a.5.5 0 0 1 0-1H19a.5.5 0 0 1 0 1zM21 26h-.101a.5.5 0 0 1 0-1H21a.5.5 0 0 1 0 1z" fill="#5d78ff" data-original="#000000" class="" opacity="1"></path></g></svg>