<svg xmlns="http://www.w3.org/2000/svg" height="496pt" viewBox="0 0 496 496" width="496pt"><path d="m352 408v48c0 4.425781 3.574219 8 8 8h96c4.425781 0 8-3.574219 8-8v-48c0-4.425781-3.574219-8-8-8h-96c-4.425781 0-8 3.574219-8 8zm16 8h80v32h-80zm0 0"></path><path d="m488 200c4.425781 0 8-3.574219 8-8v-48c0-4.425781-3.574219-8-8-8h-27.863281c-3.304688-13.792969-8.6875-26.808594-16.039063-38.832031l19.671875-19.671875c1.503907-1.503906 2.34375-3.527344 2.34375-5.65625s-.839843-4.160156-2.34375-5.65625l-33.945312-33.945313c-3-3-8.3125-3-11.3125 0l-19.671875 19.671875c-12.03125-7.359375-25.046875-12.742187-38.839844-16.046875v-27.863281c0-4.425781-3.574219-8-8-8h-48c-4.425781 0-8 3.574219-8 8v27.863281c-13.792969 3.304688-26.808594 8.6875-38.832031 16.039063l-19.671875-19.671875c-1.503906-1.503907-3.527344-2.34375-5.65625-2.34375s-4.160156.839843-5.65625 2.34375l-33.945313 33.945312c-1.503906 1.503907-2.34375 3.527344-2.34375 5.65625 0 2.128907.839844 4.160157 2.34375 5.65625l19.671875 19.671875c-7.351562 12.03125-12.734375 25.046875-16.039062 38.832032h-27.871094c-4.425781 0-8 3.574218-8 8v16h-152c-4.425781 0-8 3.574218-8 8v272c0 4.421874 3.574219 8 8 8h152v40c0 4.421874 3.574219 8 8 8h320c4.425781 0 8-3.578126 8-8v-199.992188c0-4.425781-3.574219-8-8-8h-34.414062l10.175781-10.175781c1.503906-1.503907 2.34375-3.527344 2.34375-5.65625 0-2.128907-.839844-4.160157-2.34375-5.65625l-19.671875-19.671875c7.351562-12.03125 12.734375-25.046875 16.039062-38.832032h27.871094zm-328 64v168h-144v-256h147.054688l29.792968 59.574219c1.351563 2.714843 4.121094 4.425781 7.152344 4.425781h200v40h-37.648438l-11.40625-19.96875c-1.425781-2.496094-4.082031-4.03125-6.945312-4.03125h-176c-4.425781 0-8 3.574219-8 8zm240-40h-195.054688l-8-16h203.054688zm80 256h-304v-208h163.359375l29.695313 51.96875c1.425781 2.496094 4.082031 4.03125 6.945312 4.03125h104zm0-168h-99.359375l-9.144531-16h108.503906zm-34.183594-121.496094c-3.089844 16.25-9.328125 31.359375-18.550781 44.921875-2.167969 3.167969-1.769531 7.4375.949219 10.160157l18.585937 18.574218-15.839843 15.839844h-14.960938v-80c0-4.425781-3.574219-8-8-8h-219.054688l-12.945312-25.886719v-14.113281h26.328125c3.839844 0 7.144531-2.734375 7.855469-6.503906 3.089844-16.25 9.328125-31.359375 18.550781-44.921875 2.167969-3.167969 1.769531-7.4375-.949219-10.160157l-18.585937-18.582031 22.632812-22.632812 18.574219 18.585937c2.722656 2.71875 6.984375 3.136719 10.160156.949219 13.5625-9.222656 28.671875-15.46875 44.921875-18.550781 3.777344-.710938 6.511719-4.015625 6.511719-7.855469v-26.328125h32v26.328125c0 3.839844 2.734375 7.144531 6.503906 7.855469 16.25 3.089844 31.359375 9.328125 44.921875 18.550781 3.175781 2.175781 7.4375 1.769531 10.160157-.949219l18.574218-18.585937 22.632813 22.632812-18.585938 18.574219c-2.71875 2.722656-3.117187 6.984375-.949219 10.160156 9.222657 13.5625 15.46875 28.671875 18.550782 44.921875.71875 3.777344 4.023437 6.511719 7.863281 6.511719h26.328125v32h-26.328125c-3.839844 0-7.144531 2.734375-7.855469 6.503906zm0 0"></path><path d="m328 64c-57.34375 0-104 46.65625-104 104 0 2.910156.121094 5.808594.351562 8.664062l15.953126-1.328124c-.199219-2.425782-.304688-4.855469-.304688-7.335938 0-48.519531 39.480469-88 88-88s88 39.480469 88 88c0 2.480469-.105469 4.910156-.304688 7.335938l15.953126 1.328124c.230468-2.855468.351562-5.753906.351562-8.664062 0-57.34375-46.65625-104-104-104zm0 0"></path></svg>