<svg xmlns="http://www.w3.org/2000/svg" id="Capa_1" height="512" viewBox="0 0 792 792" width="512"><g><g id="Page-1_90_"><g id="_x30_91---Stock-Tracker-Mobile"><path id="Shape_253_" d="m739.202 158.4h-686.402c-29.16 0-52.8 23.639-52.8 52.8v369.6c0 29.161 23.639 52.8 52.8 52.8h686.4c29.16 0 52.8-23.639 52.8-52.8v-369.601c.002-29.16-23.638-52.799-52.798-52.799zm-712.801 136.078 18.057 16.935c5.32 4.987 8.339 11.954 8.342 19.246v130.68c-.009 7.295-3.027 14.262-8.342 19.259l-18.058 16.923v-203.043zm0 286.323v-47.084l36.115-33.858c10.624-9.997 16.658-23.93 16.685-38.517v-130.68c-.017-14.59-6.054-28.526-16.685-38.517l-36.115-33.86v-47.085c0-14.581 11.82-26.401 26.401-26.401h620.4c14.581 0 26.401 11.82 26.401 26.401v369.6c0 14.581-11.82 26.401-26.401 26.401h-620.402c-14.58-.001-26.399-11.821-26.399-26.4zm739.2 0c0 14.581-11.82 26.401-26.401 26.401h-20.539c4.75-7.991 7.284-17.104 7.34-26.401v-369.602c-.054-9.297-2.588-18.409-7.34-26.401h20.539c14.581 0 26.401 11.82 26.401 26.401z"></path><path id="Shape_252_" d="m660.002 382.8h-13.874c-6.523-76.956-67.571-138.003-144.526-144.526v-13.874c0-7.29-5.911-13.2-13.199-13.2-7.29 0-13.199 5.911-13.199 13.2v13.874c-76.956 6.523-138.003 67.571-144.526 144.526h-13.876c-7.29 0-13.2 5.909-13.2 13.2s5.911 13.2 13.2 13.2h13.874c2.15 26.401 10.941 51.828 25.556 73.921l-31.508 24.724c-9.923-6.528-22.332-8.033-33.529-4.065l-46.728-60.087c10.904-16.866 7.456-39.221-8.021-52.018s-38.083-11.984-52.598 1.895c-14.516 13.877-16.346 36.424-4.259 52.461l-37.965 56.891c-18.832-4.826-38.398 4.631-46.317 22.385-7.918 17.754-1.883 38.63 14.29 49.418s37.765 8.342 51.117-5.788c13.35-14.131 14.565-35.829 2.877-51.363l37.99-56.893c7.244 2.016 14.938 1.715 22.004-.859l46.728 60.087c-10.273 15.565-8.338 36.18 4.653 49.562 12.991 13.38 33.539 15.927 49.401 6.119 15.863-9.807 22.768-29.327 16.604-46.928l31.68-24.895c26.759 28.857 63.334 46.676 102.55 49.963v13.874c0 7.29 5.911 13.2 13.199 13.2 7.29 0 13.199-5.909 13.199-13.2v-13.874c76.956-6.523 138.003-67.571 144.526-144.526h13.875c7.29 0 13.2-5.911 13.2-13.2 0-7.29-5.908-13.204-13.198-13.204zm-528.002 171.6c-7.29 0-13.2-5.909-13.2-13.2 0-7.29 5.911-13.2 13.2-13.2s13.2 5.911 13.2 13.2c.001 7.291-5.91 13.2-13.2 13.2zm66-131.999c0-7.29 5.911-13.2 13.2-13.2s13.2 5.911 13.2 13.2c0 7.29-5.911 13.2-13.2 13.2s-13.2-5.91-13.2-13.2zm105.601 131.999c-7.29 0-13.2-5.909-13.2-13.2 0-7.29 5.911-13.2 13.2-13.2s13.2 5.911 13.2 13.2c0 7.291-5.909 13.2-13.2 13.2zm198.001-27.073v-12.527c0-7.29-5.911-13.2-13.199-13.2-7.29 0-13.199 5.909-13.199 13.2v12.527c-31.159-3.14-60.177-17.289-81.841-39.903l73.842-58.081c16.708 10.946 38.881 8.2 52.414-6.488 13.535-14.689 14.46-37.012 2.187-52.77s-34.143-20.328-51.698-10.802c-17.556 9.526-25.647 30.351-19.126 49.231l-73.921 58.081c-11.071-17.299-17.917-36.96-19.984-57.394h12.527c7.29 0 13.199-5.911 13.199-13.199 0-7.289-5.911-13.2-13.199-13.2h-12.527c6.356-62.418 55.709-111.771 118.127-118.127v12.525c0 7.29 5.911 13.199 13.199 13.199 7.29 0 13.199-5.909 13.199-13.199v-12.527c62.418 6.356 111.771 55.709 118.127 118.127h-12.527c-7.29 0-13.2 5.909-13.2 13.2s5.909 13.2 13.2 13.2h12.527c-6.356 62.418-55.709 111.772-118.127 118.127zm-26.401-131.327c0-7.29 5.911-13.2 13.199-13.2 7.29 0 13.199 5.909 13.199 13.2s-5.911 13.2-13.199 13.2c-7.288-.001-13.199-5.91-13.199-13.2z"></path></g></g></g></svg>